# Blender v3.1.2 OBJ File: 'untitled.blend'
# www.blender.org
mtllib Barrel.mtl
g Barrel
v 0.000000 -1.000000 -0.600000
v 0.000000 1.000000 -0.600000
v 0.117054 -1.000000 -0.588471
v 0.117054 1.000000 -0.588471
v 0.229610 -1.000000 -0.554328
v 0.229610 1.000000 -0.554328
v 0.333342 -1.000000 -0.498882
v 0.333342 1.000000 -0.498882
v 0.424264 -1.000000 -0.424264
v 0.424264 1.000000 -0.424264
v 0.498882 -1.000000 -0.333342
v 0.498882 1.000000 -0.333342
v 0.554328 -1.000000 -0.229610
v 0.554328 1.000000 -0.229610
v 0.588471 -1.000000 -0.117054
v 0.588471 1.000000 -0.117054
v 0.600000 -1.000000 0.000000
v 0.600000 1.000000 0.000000
v 0.588471 -1.000000 0.117054
v 0.588471 1.000000 0.117054
v 0.554328 -1.000000 0.229610
v 0.554328 1.000000 0.229610
v 0.498882 -1.000000 0.333342
v 0.498882 1.000000 0.333342
v 0.424264 -1.000000 0.424264
v 0.424264 1.000000 0.424264
v 0.333342 -1.000000 0.498882
v 0.333342 1.000000 0.498882
v 0.229610 -1.000000 0.554328
v 0.229610 1.000000 0.554328
v 0.117054 -1.000000 0.588471
v 0.117054 1.000000 0.588471
v -0.000000 -1.000000 0.600000
v -0.000000 1.000000 0.600000
v -0.117054 -1.000000 0.588471
v -0.117054 1.000000 0.588471
v -0.229610 -1.000000 0.554328
v -0.229610 1.000000 0.554328
v -0.333342 -1.000000 0.498882
v -0.333342 1.000000 0.498882
v -0.424264 -1.000000 0.424264
v -0.424264 1.000000 0.424264
v -0.498882 -1.000000 0.333342
v -0.498882 1.000000 0.333342
v -0.554328 -1.000000 0.229610
v -0.554328 1.000000 0.229610
v -0.588471 -1.000000 0.117054
v -0.588471 1.000000 0.117054
v -0.600000 -1.000000 -0.000000
v -0.600000 1.000000 -0.000000
v -0.588471 -1.000000 -0.117054
v -0.588471 1.000000 -0.117054
v -0.554328 -1.000000 -0.229610
v -0.554328 1.000000 -0.229610
v -0.498882 -1.000000 -0.333342
v -0.498882 1.000000 -0.333342
v -0.424264 -1.000000 -0.424264
v -0.424264 1.000000 -0.424264
v -0.333342 -1.000000 -0.498882
v -0.333342 1.000000 -0.498882
v -0.229610 -1.000000 -0.554328
v -0.229610 1.000000 -0.554328
v -0.117054 -1.000000 -0.588471
v -0.117054 1.000000 -0.588471
v -0.000000 -1.000000 -0.540000
v -0.000000 1.000000 -0.540000
v 0.105349 -1.000000 -0.529624
v 0.105349 1.000000 -0.529624
v 0.206649 -1.000000 -0.498895
v 0.206649 1.000000 -0.498895
v 0.300008 -1.000000 -0.448994
v 0.300008 1.000000 -0.448994
v 0.381838 -1.000000 -0.381838
v 0.381838 1.000000 -0.381838
v 0.448994 -1.000000 -0.300008
v 0.448994 1.000000 -0.300008
v 0.498895 -1.000000 -0.206649
v 0.498895 1.000000 -0.206649
v 0.529624 -1.000000 -0.105349
v 0.529624 1.000000 -0.105349
v 0.540000 -1.000000 0.000000
v 0.540000 1.000000 0.000000
v 0.529624 -1.000000 0.105349
v 0.529624 1.000000 0.105349
v 0.498895 -1.000000 0.206649
v 0.498895 1.000000 0.206649
v 0.448994 -1.000000 0.300008
v 0.448994 1.000000 0.300008
v 0.381838 -1.000000 0.381838
v 0.381838 1.000000 0.381838
v 0.300008 -1.000000 0.448994
v 0.300008 1.000000 0.448994
v 0.206649 -1.000000 0.498895
v 0.206649 1.000000 0.498895
v 0.105349 -1.000000 0.529624
v 0.105349 1.000000 0.529624
v -0.000000 -1.000000 0.540000
v -0.000000 1.000000 0.540000
v -0.105349 -1.000000 0.529624
v -0.105349 1.000000 0.529624
v -0.206649 -1.000000 0.498895
v -0.206649 1.000000 0.498895
v -0.300008 -1.000000 0.448994
v -0.300008 1.000000 0.448994
v -0.381838 -1.000000 0.381838
v -0.381838 1.000000 0.381838
v -0.448994 -1.000000 0.300008
v -0.448994 1.000000 0.300008
v -0.498895 -1.000000 0.206649
v -0.498895 1.000000 0.206649
v -0.529624 -1.000000 0.105349
v -0.529624 1.000000 0.105349
v -0.540000 -1.000000 -0.000000
v -0.540000 1.000000 -0.000000
v -0.529624 -1.000000 -0.105349
v -0.529624 1.000000 -0.105349
v -0.498895 -1.000000 -0.206649
v -0.498895 1.000000 -0.206649
v -0.448994 -1.000000 -0.300008
v -0.448994 1.000000 -0.300008
v -0.381838 -1.000000 -0.381838
v -0.381838 1.000000 -0.381838
v -0.300008 -1.000000 -0.448994
v -0.300008 1.000000 -0.448994
v -0.206649 -1.000000 -0.498895
v -0.206649 1.000000 -0.498895
v -0.105349 -1.000000 -0.529624
v -0.105349 1.000000 -0.529624
v 0.117054 -1.000000 -0.588471
v 0.000000 -1.000000 -0.600000
v 0.000000 1.000000 -0.600000
v 0.117054 1.000000 -0.588471
v 0.229610 -1.000000 -0.554328
v 0.229610 1.000000 -0.554328
v 0.333342 -1.000000 -0.498882
v 0.333342 1.000000 -0.498882
v 0.424264 -1.000000 -0.424264
v 0.424264 1.000000 -0.424264
v 0.498882 -1.000000 -0.333342
v 0.498882 1.000000 -0.333342
v 0.554328 -1.000000 -0.229610
v 0.554328 1.000000 -0.229610
v 0.588471 -1.000000 -0.117054
v 0.588471 1.000000 -0.117054
v 0.600000 -1.000000 0.000000
v 0.600000 1.000000 0.000000
v 0.588471 -1.000000 0.117054
v 0.588471 1.000000 0.117054
v 0.554328 -1.000000 0.229610
v 0.554328 1.000000 0.229610
v 0.498882 -1.000000 0.333342
v 0.498882 1.000000 0.333342
v 0.424264 -1.000000 0.424264
v 0.424264 1.000000 0.424264
v 0.333342 -1.000000 0.498882
v 0.333342 1.000000 0.498882
v 0.229610 -1.000000 0.554328
v 0.229610 1.000000 0.554328
v 0.117054 -1.000000 0.588471
v 0.117054 1.000000 0.588471
v -0.000000 -1.000000 0.600000
v -0.000000 1.000000 0.600000
v -0.117054 -1.000000 0.588471
v -0.117054 1.000000 0.588471
v -0.229610 -1.000000 0.554328
v -0.229610 1.000000 0.554328
v -0.333342 -1.000000 0.498882
v -0.333342 1.000000 0.498882
v -0.424264 -1.000000 0.424264
v -0.424264 1.000000 0.424264
v -0.498882 -1.000000 0.333342
v -0.498882 1.000000 0.333342
v -0.554328 -1.000000 0.229610
v -0.554328 1.000000 0.229610
v -0.588471 -1.000000 0.117054
v -0.588471 1.000000 0.117054
v -0.600000 -1.000000 -0.000000
v -0.600000 1.000000 -0.000000
v -0.588471 -1.000000 -0.117054
v -0.588471 1.000000 -0.117054
v -0.554328 -1.000000 -0.229610
v -0.554328 1.000000 -0.229610
v -0.498882 -1.000000 -0.333342
v -0.498882 1.000000 -0.333342
v -0.424264 -1.000000 -0.424264
v -0.424264 1.000000 -0.424264
v -0.333342 -1.000000 -0.498882
v -0.333342 1.000000 -0.498882
v -0.229610 -1.000000 -0.554328
v -0.229610 1.000000 -0.554328
v -0.117054 -1.000000 -0.588471
v -0.117054 1.000000 -0.588471
v 0.105349 -1.000000 -0.529624
v -0.000000 -1.000000 -0.540000
v -0.000000 1.000000 -0.540000
v 0.105349 1.000000 -0.529624
v 0.206649 -1.000000 -0.498895
v 0.206649 1.000000 -0.498895
v 0.300008 -1.000000 -0.448994
v 0.300008 1.000000 -0.448994
v 0.381838 -1.000000 -0.381838
v 0.381838 1.000000 -0.381838
v 0.448994 -1.000000 -0.300008
v 0.448994 1.000000 -0.300008
v 0.498895 -1.000000 -0.206649
v 0.498895 1.000000 -0.206649
v 0.529624 -1.000000 -0.105349
v 0.529624 1.000000 -0.105349
v 0.540000 -1.000000 0.000000
v 0.540000 1.000000 0.000000
v 0.529624 -1.000000 0.105349
v 0.529624 1.000000 0.105349
v 0.498895 -1.000000 0.206649
v 0.498895 1.000000 0.206649
v 0.448994 -1.000000 0.300008
v 0.448994 1.000000 0.300008
v 0.381838 -1.000000 0.381838
v 0.381838 1.000000 0.381838
v 0.300008 -1.000000 0.448994
v 0.300008 1.000000 0.448994
v 0.206649 -1.000000 0.498895
v 0.206649 1.000000 0.498895
v 0.105349 -1.000000 0.529624
v 0.105349 1.000000 0.529624
v -0.000000 -1.000000 0.540000
v -0.000000 1.000000 0.540000
v -0.105349 -1.000000 0.529624
v -0.105349 1.000000 0.529624
v -0.206649 -1.000000 0.498895
v -0.206649 1.000000 0.498895
v -0.300008 -1.000000 0.448994
v -0.300008 1.000000 0.448994
v -0.381838 -1.000000 0.381838
v -0.381838 1.000000 0.381838
v -0.448994 -1.000000 0.300008
v -0.448994 1.000000 0.300008
v -0.498895 -1.000000 0.206649
v -0.498895 1.000000 0.206649
v -0.529624 -1.000000 0.105349
v -0.529624 1.000000 0.105349
v -0.540000 -1.000000 -0.000000
v -0.540000 1.000000 -0.000000
v -0.529624 -1.000000 -0.105349
v -0.529624 1.000000 -0.105349
v -0.498895 -1.000000 -0.206649
v -0.498895 1.000000 -0.206649
v -0.448994 -1.000000 -0.300008
v -0.448994 1.000000 -0.300008
v -0.381838 -1.000000 -0.381838
v -0.381838 1.000000 -0.381838
v -0.300008 -1.000000 -0.448994
v -0.300008 1.000000 -0.448994
v -0.206649 -1.000000 -0.498895
v -0.206649 1.000000 -0.498895
v -0.105349 -1.000000 -0.529624
v -0.105349 1.000000 -0.529624
vt 1.000000 0.000000
vt 1.000000 1.000000
vt 0.968750 1.000000
vt 0.968750 0.000000
vt 0.937500 1.000000
vt 0.937500 0.000000
vt 0.906250 1.000000
vt 0.906250 0.000000
vt 0.875000 1.000000
vt 0.875000 0.000000
vt 0.843750 1.000000
vt 0.843750 0.000000
vt 0.812500 1.000000
vt 0.812500 0.000000
vt 0.781250 1.000000
vt 0.781250 0.000000
vt 0.750000 1.000000
vt 0.750000 0.000000
vt 0.718750 1.000000
vt 0.718750 0.000000
vt 0.687500 1.000000
vt 0.687500 0.000000
vt 0.656250 1.000000
vt 0.656250 0.000000
vt 0.625000 1.000000
vt 0.625000 0.000000
vt 0.593750 1.000000
vt 0.593750 0.000000
vt 0.562500 1.000000
vt 0.562500 0.000000
vt 0.531250 1.000000
vt 0.531250 0.000000
vt 0.500000 1.000000
vt 0.500000 0.000000
vt 0.468750 1.000000
vt 0.468750 0.000000
vt 0.437500 1.000000
vt 0.437500 0.000000
vt 0.406250 1.000000
vt 0.406250 0.000000
vt 0.375000 1.000000
vt 0.375000 0.000000
vt 0.343750 1.000000
vt 0.343750 0.000000
vt 0.312500 1.000000
vt 0.312500 0.000000
vt 0.281250 1.000000
vt 0.281250 0.000000
vt 0.250000 1.000000
vt 0.250000 0.000000
vt 0.218750 1.000000
vt 0.218750 0.000000
vt 0.187500 1.000000
vt 0.187500 0.000000
vt 0.156250 1.000000
vt 0.156250 0.000000
vt 0.125000 1.000000
vt 0.125000 0.000000
vt 0.093750 1.000000
vt 0.093750 0.000000
vt 0.062500 1.000000
vt 0.062500 0.000000
vt 0.031250 1.000000
vt 0.031250 0.000000
vt 0.000000 1.000000
vt 0.000000 0.000000
vt 1.000000 0.000000
vt 0.968750 0.000000
vt 0.968750 1.000000
vt 1.000000 1.000000
vt 0.937500 0.000000
vt 0.937500 1.000000
vt 0.906250 0.000000
vt 0.906250 1.000000
vt 0.875000 0.000000
vt 0.875000 1.000000
vt 0.843750 0.000000
vt 0.843750 1.000000
vt 0.812500 0.000000
vt 0.812500 1.000000
vt 0.781250 0.000000
vt 0.781250 1.000000
vt 0.750000 0.000000
vt 0.750000 1.000000
vt 0.718750 0.000000
vt 0.718750 1.000000
vt 0.687500 0.000000
vt 0.687500 1.000000
vt 0.656250 0.000000
vt 0.656250 1.000000
vt 0.625000 0.000000
vt 0.625000 1.000000
vt 0.593750 0.000000
vt 0.593750 1.000000
vt 0.562500 0.000000
vt 0.562500 1.000000
vt 0.531250 0.000000
vt 0.531250 1.000000
vt 0.500000 0.000000
vt 0.500000 1.000000
vt 0.468750 0.000000
vt 0.468750 1.000000
vt 0.437500 0.000000
vt 0.437500 1.000000
vt 0.406250 0.000000
vt 0.406250 1.000000
vt 0.375000 0.000000
vt 0.375000 1.000000
vt 0.343750 0.000000
vt 0.343750 1.000000
vt 0.312500 0.000000
vt 0.312500 1.000000
vt 0.281250 0.000000
vt 0.281250 1.000000
vt 0.250000 0.000000
vt 0.250000 1.000000
vt 0.218750 0.000000
vt 0.218750 1.000000
vt 0.187500 0.000000
vt 0.187500 1.000000
vt 0.156250 0.000000
vt 0.156250 1.000000
vt 0.125000 0.000000
vt 0.125000 1.000000
vt 0.093750 0.000000
vt 0.093750 1.000000
vt 0.062500 0.000000
vt 0.062500 1.000000
vt 0.031250 0.000000
vt 0.031250 1.000000
vt 0.000000 0.000000
vt 0.000000 1.000000
vt 1.000000 0.000000
vt 0.968750 0.000000
vt 0.968750 0.000000
vt 1.000000 0.000000
vt 0.968750 1.000000
vt 1.000000 1.000000
vt 1.000000 1.000000
vt 0.968750 1.000000
vt 0.937500 0.000000
vt 0.937500 0.000000
vt 0.937500 1.000000
vt 0.937500 1.000000
vt 0.906250 0.000000
vt 0.906250 0.000000
vt 0.906250 1.000000
vt 0.906250 1.000000
vt 0.875000 0.000000
vt 0.875000 0.000000
vt 0.875000 1.000000
vt 0.875000 1.000000
vt 0.843750 0.000000
vt 0.843750 0.000000
vt 0.843750 1.000000
vt 0.843750 1.000000
vt 0.812500 0.000000
vt 0.812500 0.000000
vt 0.812500 1.000000
vt 0.812500 1.000000
vt 0.781250 0.000000
vt 0.781250 0.000000
vt 0.781250 1.000000
vt 0.781250 1.000000
vt 0.750000 0.000000
vt 0.750000 0.000000
vt 0.750000 1.000000
vt 0.750000 1.000000
vt 0.718750 0.000000
vt 0.718750 0.000000
vt 0.718750 1.000000
vt 0.718750 1.000000
vt 0.687500 0.000000
vt 0.687500 0.000000
vt 0.687500 1.000000
vt 0.687500 1.000000
vt 0.656250 0.000000
vt 0.656250 0.000000
vt 0.656250 1.000000
vt 0.656250 1.000000
vt 0.625000 0.000000
vt 0.625000 0.000000
vt 0.625000 1.000000
vt 0.625000 1.000000
vt 0.593750 0.000000
vt 0.593750 0.000000
vt 0.593750 1.000000
vt 0.593750 1.000000
vt 0.562500 0.000000
vt 0.562500 0.000000
vt 0.562500 1.000000
vt 0.562500 1.000000
vt 0.531250 0.000000
vt 0.531250 0.000000
vt 0.531250 1.000000
vt 0.531250 1.000000
vt 0.500000 0.000000
vt 0.500000 0.000000
vt 0.500000 1.000000
vt 0.500000 1.000000
vt 0.468750 0.000000
vt 0.468750 0.000000
vt 0.468750 1.000000
vt 0.468750 1.000000
vt 0.437500 0.000000
vt 0.437500 0.000000
vt 0.437500 1.000000
vt 0.437500 1.000000
vt 0.406250 0.000000
vt 0.406250 0.000000
vt 0.406250 1.000000
vt 0.406250 1.000000
vt 0.375000 0.000000
vt 0.375000 0.000000
vt 0.375000 1.000000
vt 0.375000 1.000000
vt 0.343750 0.000000
vt 0.343750 0.000000
vt 0.343750 1.000000
vt 0.343750 1.000000
vt 0.312500 0.000000
vt 0.312500 0.000000
vt 0.312500 1.000000
vt 0.312500 1.000000
vt 0.281250 0.000000
vt 0.281250 0.000000
vt 0.281250 1.000000
vt 0.281250 1.000000
vt 0.250000 0.000000
vt 0.250000 0.000000
vt 0.250000 1.000000
vt 0.250000 1.000000
vt 0.218750 0.000000
vt 0.218750 0.000000
vt 0.218750 1.000000
vt 0.218750 1.000000
vt 0.187500 0.000000
vt 0.187500 0.000000
vt 0.187500 1.000000
vt 0.187500 1.000000
vt 0.156250 0.000000
vt 0.156250 0.000000
vt 0.156250 1.000000
vt 0.156250 1.000000
vt 0.125000 0.000000
vt 0.125000 0.000000
vt 0.125000 1.000000
vt 0.125000 1.000000
vt 0.093750 0.000000
vt 0.093750 0.000000
vt 0.093750 1.000000
vt 0.093750 1.000000
vt 0.062500 0.000000
vt 0.062500 0.000000
vt 0.062500 1.000000
vt 0.062500 1.000000
vt 0.031250 0.000000
vt 0.031250 0.000000
vt 0.031250 1.000000
vt 0.031250 1.000000
vt 0.000000 0.000000
vt 0.000000 0.000000
vt 0.000000 1.000000
vt 0.000000 1.000000
vn 0.0000 0.0000 -1.0000
vn 0.1951 0.0000 -0.9808
vn 0.3827 0.0000 -0.9239
vn 0.5556 0.0000 -0.8315
vn 0.7071 0.0000 -0.7071
vn 0.8315 0.0000 -0.5556
vn 0.9239 0.0000 -0.3827
vn 0.9808 0.0000 -0.1951
vn 1.0000 0.0000 0.0000
vn 0.9808 0.0000 0.1951
vn 0.9239 0.0000 0.3827
vn 0.8315 0.0000 0.5556
vn 0.7071 0.0000 0.7071
vn 0.5556 0.0000 0.8315
vn 0.3827 0.0000 0.9239
vn 0.1951 0.0000 0.9808
vn -0.0000 0.0000 1.0000
vn -0.1951 0.0000 0.9808
vn -0.3827 0.0000 0.9239
vn -0.5556 0.0000 0.8315
vn -0.7071 0.0000 0.7071
vn -0.8315 0.0000 0.5556
vn -0.9239 0.0000 0.3827
vn -0.9808 0.0000 0.1951
vn -1.0000 0.0000 0.0000
vn -0.9808 0.0000 -0.1951
vn -0.9239 0.0000 -0.3827
vn -0.8315 0.0000 -0.5556
vn -0.7071 0.0000 -0.7071
vn -0.5556 0.0000 -0.8315
vn -0.3827 0.0000 -0.9239
vn -0.1951 0.0000 -0.9808
vn 0.0000 -1.0000 0.0000
vn 0.0000 1.0000 0.0000
usemtl None
s 1
f 130/1/1 131/2/1 132/3/2 129/4/2
f 129/4/2 132/3/2 134/5/3 133/6/3
f 133/6/3 134/5/3 136/7/4 135/8/4
f 135/8/4 136/7/4 138/9/5 137/10/5
f 137/10/5 138/9/5 140/11/6 139/12/6
f 139/12/6 140/11/6 142/13/7 141/14/7
f 141/14/7 142/13/7 144/15/8 143/16/8
f 143/16/8 144/15/8 146/17/9 145/18/9
f 145/18/9 146/17/9 148/19/10 147/20/10
f 147/20/10 148/19/10 150/21/11 149/22/11
f 149/22/11 150/21/11 152/23/12 151/24/12
f 151/24/12 152/23/12 154/25/13 153/26/13
f 153/26/13 154/25/13 156/27/14 155/28/14
f 155/28/14 156/27/14 158/29/15 157/30/15
f 157/30/15 158/29/15 160/31/16 159/32/16
f 159/32/16 160/31/16 162/33/17 161/34/17
f 161/34/17 162/33/17 164/35/18 163/36/18
f 163/36/18 164/35/18 166/37/19 165/38/19
f 165/38/19 166/37/19 168/39/20 167/40/20
f 167/40/20 168/39/20 170/41/21 169/42/21
f 169/42/21 170/41/21 172/43/22 171/44/22
f 171/44/22 172/43/22 174/45/23 173/46/23
f 173/46/23 174/45/23 176/47/24 175/48/24
f 175/48/24 176/47/24 178/49/25 177/50/25
f 177/50/25 178/49/25 180/51/26 179/52/26
f 179/52/26 180/51/26 182/53/27 181/54/27
f 181/54/27 182/53/27 184/55/28 183/56/28
f 183/56/28 184/55/28 186/57/29 185/58/29
f 185/58/29 186/57/29 188/59/30 187/60/30
f 187/60/30 188/59/30 190/61/31 189/62/31
f 189/62/31 190/61/31 192/63/32 191/64/32
f 191/64/32 192/63/32 131/65/1 130/66/1
f 194/67/17 193/68/18 196/69/18 195/70/17
f 193/68/18 197/71/19 198/72/19 196/69/18
f 197/71/19 199/73/20 200/74/20 198/72/19
f 199/73/20 201/75/21 202/76/21 200/74/20
f 201/75/21 203/77/22 204/78/22 202/76/21
f 203/77/22 205/79/23 206/80/23 204/78/22
f 205/79/23 207/81/24 208/82/24 206/80/23
f 207/81/24 209/83/25 210/84/25 208/82/24
f 209/83/25 211/85/26 212/86/26 210/84/25
f 211/85/26 213/87/27 214/88/27 212/86/26
f 213/87/27 215/89/28 216/90/28 214/88/27
f 215/89/28 217/91/29 218/92/29 216/90/28
f 217/91/29 219/93/30 220/94/30 218/92/29
f 219/93/30 221/95/31 222/96/31 220/94/30
f 221/95/31 223/97/32 224/98/32 222/96/31
f 223/97/32 225/99/1 226/100/1 224/98/32
f 225/99/1 227/101/2 228/102/2 226/100/1
f 227/101/2 229/103/3 230/104/3 228/102/2
f 229/103/3 231/105/4 232/106/4 230/104/3
f 231/105/4 233/107/5 234/108/5 232/106/4
f 233/107/5 235/109/6 236/110/6 234/108/5
f 235/109/6 237/111/7 238/112/7 236/110/6
f 237/111/7 239/113/8 240/114/8 238/112/7
f 239/113/8 241/115/9 242/116/9 240/114/8
f 241/115/9 243/117/10 244/118/10 242/116/9
f 243/117/10 245/119/11 246/120/11 244/118/10
f 245/119/11 247/121/12 248/122/12 246/120/11
f 247/121/12 249/123/13 250/124/13 248/122/12
f 249/123/13 251/125/14 252/126/14 250/124/13
f 251/125/14 253/127/15 254/128/15 252/126/14
f 253/127/15 255/129/16 256/130/16 254/128/15
f 255/129/16 194/131/17 195/132/17 256/130/16
f 1/133/33 3/134/33 67/135/33 65/136/33
f 4/137/34 2/138/34 66/139/34 68/140/34
f 3/134/33 5/141/33 69/142/33 67/135/33
f 6/143/34 4/137/34 68/140/34 70/144/34
f 5/141/33 7/145/33 71/146/33 69/142/33
f 8/147/34 6/143/34 70/144/34 72/148/34
f 7/145/33 9/149/33 73/150/33 71/146/33
f 10/151/34 8/147/34 72/148/34 74/152/34
f 9/149/33 11/153/33 75/154/33 73/150/33
f 12/155/34 10/151/34 74/152/34 76/156/34
f 11/153/33 13/157/33 77/158/33 75/154/33
f 14/159/34 12/155/34 76/156/34 78/160/34
f 13/157/33 15/161/33 79/162/33 77/158/33
f 16/163/34 14/159/34 78/160/34 80/164/34
f 15/161/33 17/165/33 81/166/33 79/162/33
f 18/167/34 16/163/34 80/164/34 82/168/34
f 17/165/33 19/169/33 83/170/33 81/166/33
f 20/171/34 18/167/34 82/168/34 84/172/34
f 19/169/33 21/173/33 85/174/33 83/170/33
f 22/175/34 20/171/34 84/172/34 86/176/34
f 21/173/33 23/177/33 87/178/33 85/174/33
f 24/179/34 22/175/34 86/176/34 88/180/34
f 23/177/33 25/181/33 89/182/33 87/178/33
f 26/183/34 24/179/34 88/180/34 90/184/34
f 25/181/33 27/185/33 91/186/33 89/182/33
f 28/187/34 26/183/34 90/184/34 92/188/34
f 27/185/33 29/189/33 93/190/33 91/186/33
f 30/191/34 28/187/34 92/188/34 94/192/34
f 29/189/33 31/193/33 95/194/33 93/190/33
f 32/195/34 30/191/34 94/192/34 96/196/34
f 31/193/33 33/197/33 97/198/33 95/194/33
f 34/199/34 32/195/34 96/196/34 98/200/34
f 33/197/33 35/201/33 99/202/33 97/198/33
f 36/203/34 34/199/34 98/200/34 100/204/34
f 35/201/33 37/205/33 101/206/33 99/202/33
f 38/207/34 36/203/34 100/204/34 102/208/34
f 37/205/33 39/209/33 103/210/33 101/206/33
f 40/211/34 38/207/34 102/208/34 104/212/34
f 39/209/33 41/213/33 105/214/33 103/210/33
f 42/215/34 40/211/34 104/212/34 106/216/34
f 41/213/33 43/217/33 107/218/33 105/214/33
f 44/219/34 42/215/34 106/216/34 108/220/34
f 43/217/33 45/221/33 109/222/33 107/218/33
f 46/223/34 44/219/34 108/220/34 110/224/34
f 45/221/33 47/225/33 111/226/33 109/222/33
f 48/227/34 46/223/34 110/224/34 112/228/34
f 47/225/33 49/229/33 113/230/33 111/226/33
f 50/231/34 48/227/34 112/228/34 114/232/34
f 49/229/33 51/233/33 115/234/33 113/230/33
f 52/235/34 50/231/34 114/232/34 116/236/34
f 51/233/33 53/237/33 117/238/33 115/234/33
f 54/239/34 52/235/34 116/236/34 118/240/34
f 53/237/33 55/241/33 119/242/33 117/238/33
f 56/243/34 54/239/34 118/240/34 120/244/34
f 55/241/33 57/245/33 121/246/33 119/242/33
f 58/247/34 56/243/34 120/244/34 122/248/34
f 57/245/33 59/249/33 123/250/33 121/246/33
f 60/251/34 58/247/34 122/248/34 124/252/34
f 59/249/33 61/253/33 125/254/33 123/250/33
f 62/255/34 60/251/34 124/252/34 126/256/34
f 61/253/33 63/257/33 127/258/33 125/254/33
f 64/259/34 62/255/34 126/256/34 128/260/34
f 63/257/33 1/261/33 65/262/33 127/258/33
f 2/263/34 64/259/34 128/260/34 66/264/34
