####
#
# OBJ File Generated by Meshlab
#
####
# Object Pyramid - Copy.obj
#
# Vertices: 5
# Faces: 6
#
####
vn 0.704657 0.083173 -0.704657
v 0.500000 1.000000 -0.500000
vn 0.532407 0.658092 0.532407
v 0.500000 1.000000 0.500000
vn 0.000000 -1.000000 0.000000
v 0.000000 0.000000 0.000000
vn -0.532407 0.658092 -0.532407
v -0.500000 1.000000 -0.500000
vn -0.704657 0.083173 0.704657
v -0.500000 1.000000 0.500000
# 5 vertices, 0 vertices normals

f 1//1 2//2 3//3
f 4//4 2//2 1//1
f 1//1 3//3 4//4
f 2//2 5//5 3//3
f 5//5 4//4 3//3
f 5//5 2//2 4//4
# 6 faces, 0 coords texture

# End of File
