####
# Object Triangle.obj
#
# Vertices: 6
# Faces: 6
#
####
g Prism

v -0.500000 -0.353553 -0.707107
v -0.500000 0.353553 0.000000
v -0.500000 -0.353553 0.707107
v 0.500000 -0.353553 -0.707107
v 0.500000 0.353553 0.000000
v 0.500000 -0.353553 0.707107
vn 0.000000 0.707107 -0.707107
vn -1.000000 0.000000 0.000000
vn 0.000000 0.707107 0.707107
vn 0.000000 -1.000000 0.000000
vn 1.000000 0.000000 0.000000
# 6 vertices, 0 vertices normals

f 1//1 5//1 4//1
f 1//1 2//1 5//1
f 1//2 3//2 2//2
f 2//3 6//3 5//3
f 2//3 3//3 6//3
f 3//4 4//4 6//4
f 3//4 1//4 4//4
f 4//5 5//5 6//5
# 8 faces, 0 coords texture

# End of File
